<svg width="361" height="179" viewBox="0 0 361 179" fill="none" xmlns="http://www.w3.org/2000/svg">
<path d="M39.3851 39.6964V47.7551C39.3851 57.3061 39.3851 64.7679 39.8782 68.9464C40.174 71.8316 40.7657 74.0204 43.7241 74.4184C45.1047 74.6174 47.2741 74.8163 48.6547 74.8163C49.9367 74.8163 50.3311 75.1148 50.3311 75.6123C50.3311 76.3087 49.6408 76.6071 48.1616 76.6071C41.949 76.6071 35.7364 76.3087 33.1725 76.3087C30.6086 76.3087 24.396 76.6071 20.6487 76.6071C19.2681 76.6071 18.5778 76.4082 18.5778 75.6123C18.5778 75.1148 18.9723 74.8163 20.057 74.8163C21.5362 74.8163 22.7195 74.6174 23.6071 74.4184C25.5793 74.0204 26.0724 71.8316 26.4669 68.9464C26.9599 64.7679 26.9599 57.3061 26.9599 47.7551V30.2449C26.9599 15.1225 26.9599 12.3367 26.7627 9.15306C26.5655 5.7704 25.7765 4.17857 22.5223 3.48213C21.7334 3.28317 20.057 3.18368 18.6764 3.18368C17.6903 3.18368 17 2.9847 17 2.38776C17 1.59184 17.7889 1.39286 19.2681 1.39286C21.832 1.39286 24.6918 1.49235 27.2558 1.49235C29.8197 1.59184 32.0878 1.69132 33.4684 1.69132C37.2156 1.69132 57.234 1.69132 59.5021 1.59184C61.3757 1.49235 62.5591 1.49235 63.5452 1.19387C64.1369 0.9949 64.63 0.596937 65.123 0.596937C65.5175 0.596937 65.8133 0.9949 65.8133 1.49235C65.8133 2.18877 65.3203 3.38266 65.0244 5.96939C64.9258 6.96429 64.7286 12.8342 64.5314 14.0281C64.4327 14.824 64.2355 15.4209 63.5452 15.4209C62.8549 15.4209 62.6577 14.9235 62.5591 13.8291C62.5591 13.0332 62.5591 11.4413 61.9674 10.0485C61.2771 8.65561 59.2063 7.16326 55.459 7.06378L40.2726 6.7653C39.681 6.7653 39.3851 7.06378 39.3851 8.15816V33.0306C39.3851 33.6276 39.4837 33.926 40.0754 33.926L52.6978 33.8265C54.3742 33.8265 55.7548 33.8265 57.1354 33.727C59.009 33.6276 60.3896 33.2296 61.3757 31.9362C61.8688 31.3393 62.066 30.9413 62.6577 30.9413C63.0522 30.9413 63.2494 31.2398 63.2494 31.8367C63.2494 32.4337 62.7563 34.9209 62.4605 38.0051C62.2633 39.9949 62.066 44.5714 62.066 45.2679C62.066 46.1633 62.066 47.1582 61.0799 47.1582C60.4882 47.1582 60.291 46.4617 60.291 45.7653C60.291 45.0689 60.0938 43.875 59.6993 42.6811C59.2063 41.2883 57.7271 39.4974 54.6701 39.0995C52.2048 38.801 41.7518 38.801 40.0754 38.801C39.5823 38.801 39.3851 39 39.3851 39.6964ZM109.407 78C81.1052 78 69.6661 56.6097 69.6661 39C69.6661 21.9872 80.8093 0 110.393 0C134.948 0 150.233 14.426 150.233 37.2092C150.233 59.9923 134.455 78 109.407 78ZM113.549 73.0255C120.452 73.0255 136.427 69.6429 136.427 40.8903C136.427 18.6046 123.706 4.77551 107.533 4.77551C96.1929 4.77551 83.2747 11.1429 83.2747 35.9158C83.2747 56.6097 94.6151 73.0255 113.549 73.0255ZM199.22 78C185.71 78 174.369 75.0153 165.395 67.1556C155.731 58.5995 153.167 47.4566 153.167 37.8061C153.167 31.0408 155.238 19.301 164.705 10.5459C171.805 3.97958 181.173 0 195.867 0C201.981 0 205.629 0.39796 210.166 0.9949C213.913 1.49235 217.068 2.38776 220.027 2.68623C221.112 2.78572 221.506 3.28317 221.506 3.8801C221.506 4.67602 221.21 5.8699 221.013 9.35204C220.816 12.6352 220.914 18.1071 220.717 20.0969C220.619 21.5893 220.421 22.3852 219.534 22.3852C218.745 22.3852 218.548 21.5893 218.548 20.1964C218.449 17.1122 217.167 13.6301 214.702 11.0434C211.448 7.56123 203.756 4.87499 194.683 4.87499C186.104 4.87499 180.483 7.06378 176.144 11.0434C168.946 17.7092 167.072 27.1607 167.072 36.8112C167.072 60.4898 184.921 72.2296 198.135 72.2296C206.911 72.2296 212.236 71.2347 216.181 66.6582C217.857 64.7679 219.139 61.8827 219.534 60.0918C219.83 58.5 220.027 58.102 220.816 58.102C221.506 58.102 221.703 58.7985 221.703 59.5944C221.703 60.7883 220.52 69.4439 219.534 72.8265C219.041 74.5179 218.646 75.0153 216.97 75.7117C213.025 77.3036 205.531 78 199.22 78ZM230.657 44.7704V30.2449C230.657 15.1225 230.657 12.3367 230.46 9.15306C230.263 5.7704 229.474 4.17857 226.22 3.48213C225.431 3.28317 223.754 3.18368 222.374 3.18368C221.289 3.18368 220.697 2.9847 220.697 2.28827C220.697 1.59184 221.388 1.39286 222.867 1.39286C228.093 1.39286 234.306 1.69132 237.264 1.69132C239.631 1.69132 245.844 1.39286 249.394 1.39286C250.873 1.39286 251.563 1.59184 251.563 2.28827C251.563 2.9847 250.972 3.18368 249.985 3.18368C248.901 3.18368 248.309 3.28317 247.126 3.48213C244.463 3.97958 243.674 5.67092 243.477 9.15306C243.28 12.3367 243.28 15.1225 243.28 30.2449V44.1735C243.28 58.5995 246.14 64.6684 250.972 68.648C255.409 72.3291 259.945 72.7271 263.298 72.7271C267.637 72.7271 272.962 71.3342 276.907 67.3546C282.33 61.8827 282.626 52.9286 282.626 42.6811V30.2449C282.626 15.1225 282.626 12.3367 282.429 9.15306C282.232 5.7704 281.443 4.17857 278.189 3.48213C277.4 3.28317 275.723 3.18368 274.639 3.18368C273.554 3.18368 272.962 2.9847 272.962 2.28827C272.962 1.59184 273.652 1.39286 275.033 1.39286C280.062 1.39286 286.275 1.69132 286.374 1.69132C287.557 1.69132 293.769 1.39286 297.615 1.39286C298.996 1.39286 299.686 1.59184 299.686 2.28827C299.686 2.9847 299.095 3.18368 297.911 3.18368C296.826 3.18368 296.235 3.28317 295.051 3.48213C292.389 3.97958 291.6 5.67092 291.403 9.15306C291.206 12.3367 291.206 15.1225 291.206 30.2449V40.8903C291.206 51.9337 290.121 63.6735 281.837 70.8367C274.836 76.9056 267.736 78 261.326 78C256.099 78 246.633 77.7015 239.434 71.1352C234.405 66.5587 230.657 59.1964 230.657 44.7704ZM319.957 78C314.237 78 309.8 77.3036 305.56 75.4133C303.982 74.7168 303.686 74.2194 303.686 72.0306C303.686 66.5587 304.08 60.5893 304.179 58.9974C304.278 57.5051 304.573 56.4107 305.362 56.4107C306.25 56.4107 306.348 57.3061 306.348 58.102C306.348 59.3954 306.743 61.4847 307.236 63.176C309.405 70.5383 315.224 73.2245 321.338 73.2245C330.213 73.2245 334.552 67.1556 334.552 61.8827C334.552 57.0077 333.073 52.4311 324.888 45.9643L320.351 42.3827C309.504 33.8265 305.757 26.8622 305.757 18.8036C305.757 7.8597 314.829 0 328.536 0C334.946 0 339.088 0.9949 341.652 1.69132C342.539 1.89031 343.032 2.18877 343.032 2.88521C343.032 4.17857 342.638 7.06378 342.638 14.824C342.638 17.0128 342.342 17.8087 341.553 17.8087C340.863 17.8087 340.567 17.2117 340.567 16.0179C340.567 15.1225 340.074 12.0383 338.003 9.45152C336.524 7.56123 333.664 4.57653 327.254 4.57653C319.957 4.57653 315.519 8.85459 315.519 14.824C315.519 19.4005 317.788 22.8827 325.972 29.1505L328.734 31.2398C340.666 40.2934 344.906 47.1582 344.906 56.6097C344.906 62.3801 342.737 69.2449 335.636 73.9209C330.706 77.1046 325.184 78 319.957 78Z" fill="#D4AF37"/>
<path d="M0 86.9375C68.1608 88.4939 235.786 90.6729 361 86.9375C247.988 86.23 17.5703 85.2396 0 86.9375Z" fill="#D4AF37"/>
<path d="M45.2711 179C39.5516 179 35.114 178.304 30.8736 176.413C29.2958 175.717 29 175.219 29 173.031C29 167.559 29.3945 161.589 29.4931 159.997C29.5917 158.505 29.8875 157.411 30.6764 157.411C31.5639 157.411 31.6625 158.306 31.6625 159.102C31.6625 160.395 32.057 162.485 32.55 164.176C34.7195 171.538 40.5377 174.224 46.6517 174.224C55.5268 174.224 59.8658 168.156 59.8658 162.883C59.8658 158.008 58.3866 153.431 50.2017 146.964L45.6655 143.383C34.8181 134.827 31.0708 127.862 31.0708 119.804C31.0708 108.86 40.1432 101 53.8504 101C60.2602 101 64.402 101.995 66.9659 102.691C67.8534 102.89 68.3465 103.189 68.3465 103.885C68.3465 105.179 67.952 108.064 67.952 115.824C67.952 118.013 67.6562 118.809 66.8673 118.809C66.177 118.809 65.8811 118.212 65.8811 117.018C65.8811 116.122 65.3881 113.038 63.3172 110.452C61.838 108.561 58.9782 105.577 52.5684 105.577C45.2711 105.577 40.8335 109.855 40.8335 115.824C40.8335 120.401 43.1016 123.883 51.2864 130.151L54.0476 132.24C65.9797 141.293 70.2201 148.158 70.2201 157.61C70.2201 163.38 68.0506 170.245 60.9505 174.921C56.0199 178.105 50.4976 179 45.2711 179ZM114.796 179C86.4942 179 75.0551 157.61 75.0551 140C75.0551 122.987 86.1983 101 115.782 101C140.337 101 155.622 115.426 155.622 138.209C155.622 160.992 139.844 179 114.796 179ZM118.938 174.026C125.841 174.026 141.816 170.643 141.816 141.89C141.816 119.605 129.095 105.776 112.922 105.776C101.582 105.776 88.6636 112.143 88.6636 136.916C88.6636 157.61 100.004 174.026 118.938 174.026ZM165.065 145.77V131.245C165.065 116.122 165.065 113.337 164.868 110.153C164.67 106.77 163.881 105.179 160.627 104.482C159.838 104.283 158.162 104.184 156.781 104.184C155.697 104.184 155.105 103.985 155.105 103.288C155.105 102.592 155.795 102.393 157.274 102.393C162.501 102.393 168.713 102.691 171.672 102.691C174.039 102.691 180.251 102.393 183.801 102.393C185.28 102.393 185.971 102.592 185.971 103.288C185.971 103.985 185.379 104.184 184.393 104.184C183.308 104.184 182.716 104.283 181.533 104.482C178.871 104.98 178.082 106.671 177.884 110.153C177.687 113.337 177.687 116.122 177.687 131.245V145.173C177.687 159.599 180.547 165.668 185.379 169.648C189.817 173.329 194.353 173.727 197.706 173.727C202.045 173.727 207.37 172.334 211.314 168.355C216.738 162.883 217.034 153.929 217.034 143.681V131.245C217.034 116.122 217.034 113.337 216.836 110.153C216.639 106.77 215.85 105.179 212.596 104.482C211.807 104.283 210.131 104.184 209.046 104.184C207.961 104.184 207.37 103.985 207.37 103.288C207.37 102.592 208.06 102.393 209.44 102.393C214.47 102.393 220.682 102.691 220.781 102.691C221.964 102.691 228.177 102.393 232.023 102.393C233.403 102.393 234.094 102.592 234.094 103.288C234.094 103.985 233.502 104.184 232.319 104.184C231.234 104.184 230.642 104.283 229.459 104.482C226.796 104.98 226.007 106.671 225.81 110.153C225.613 113.337 225.613 116.122 225.613 131.245V141.89C225.613 152.934 224.528 164.673 216.245 171.837C209.243 177.906 202.143 179 195.733 179C190.507 179 181.04 178.702 173.841 172.135C168.812 167.559 165.065 160.196 165.065 145.77ZM257.717 131.245V148.755C257.717 161.49 257.717 168.355 259.788 170.145C261.465 171.638 264.028 172.334 271.72 172.334C276.947 172.334 280.793 172.235 283.258 169.548C284.441 168.255 285.625 165.469 285.822 163.579C285.921 162.684 286.118 162.087 286.907 162.087C287.597 162.087 287.696 162.584 287.696 163.778C287.696 164.872 287.005 172.334 286.216 175.219C285.625 177.408 285.132 177.906 280.004 177.906C272.904 177.906 267.776 177.707 263.338 177.607C258.901 177.408 255.351 177.309 251.307 177.309C250.223 177.309 248.053 177.309 245.687 177.408C243.418 177.408 240.855 177.607 238.882 177.607C237.6 177.607 236.91 177.309 236.91 176.612C236.91 176.115 237.304 175.816 238.488 175.816C239.8 175.816 242.935 172.503 243.578 171.638C245.057 169.648 244.663 169.051 245.057 166.166C245.55 161.987 245.391 157.908 245.391 148.755V131.245C245.391 116.122 245.391 113.337 245.193 110.153C244.996 106.77 244.207 105.179 240.953 104.482C240.164 104.283 238.981 104.184 237.699 104.184C236.614 104.184 236.023 103.985 236.023 103.288C236.023 102.592 236.713 102.393 238.192 102.393C242.827 102.393 249.039 102.691 251.702 102.691C254.069 102.691 261.267 102.393 265.113 102.393C266.494 102.393 267.184 102.592 267.184 103.288C267.184 103.985 266.592 104.184 265.409 104.184C264.324 104.184 262.747 104.283 261.563 104.482C258.901 104.98 258.112 106.671 257.915 110.153C257.717 113.337 257.717 116.122 257.717 131.245ZM306.182 179C300.463 179 296.025 178.304 291.785 176.413C290.207 175.717 289.911 175.219 289.911 173.031C289.911 167.559 290.306 161.589 290.404 159.997C290.503 158.505 290.799 157.411 291.588 157.411C292.475 157.411 292.574 158.306 292.574 159.102C292.574 160.395 292.968 162.485 293.461 164.176C295.631 171.538 301.449 174.224 307.563 174.224C316.438 174.224 320.777 168.156 320.777 162.883C320.777 158.008 319.298 153.431 311.113 146.964L306.577 143.383C295.73 134.827 291.982 127.862 291.982 119.804C291.982 108.86 301.055 101 314.762 101C321.172 101 325.313 101.995 327.877 102.691C328.765 102.89 329.258 103.189 329.258 103.885C329.258 105.179 328.863 108.064 328.863 115.824C328.863 118.013 328.568 118.809 327.779 118.809C327.088 118.809 326.792 118.212 326.792 117.018C326.792 116.122 326.299 113.038 324.229 110.452C322.749 108.561 319.89 105.577 313.48 105.577C306.182 105.577 301.745 109.855 301.745 115.824C301.745 120.401 304.013 123.883 312.198 130.151L314.959 132.24C326.891 141.293 331.131 148.158 331.131 157.61C331.131 163.38 328.962 170.245 321.862 174.921C316.931 178.105 311.409 179 306.182 179Z" fill="#D4AF37"/>
<path d="M341.771 97V97.6691H340.383V102H339.527V97.6691H338.131V97H341.771ZM348.131 97V102H347.276V98.5755L345.685 102H345.092L343.493 98.5755V102H342.638V97H343.561L345.392 100.921L347.216 97H348.131Z" fill="#D4AF37"/>
</svg>
