<svg width="715" height="83" viewBox="0 0 715 83" fill="none" xmlns="http://www.w3.org/2000/svg">
<path d="M50.3851 44.6964V52.7551C50.3851 62.3061 50.3851 69.7679 50.8782 73.9464C51.174 76.8316 51.7657 79.0204 54.7241 79.4184C56.1047 79.6174 58.2741 79.8163 59.6547 79.8163C60.9367 79.8163 61.3311 80.1148 61.3311 80.6123C61.3311 81.3087 60.6408 81.6072 59.1616 81.6072C52.949 81.6072 46.7364 81.3087 44.1725 81.3087C41.6086 81.3087 35.396 81.6072 31.6487 81.6072C30.2681 81.6072 29.5778 81.4082 29.5778 80.6123C29.5778 80.1148 29.9723 79.8163 31.057 79.8163C32.5362 79.8163 33.7195 79.6174 34.6071 79.4184C36.5793 79.0204 37.0724 76.8316 37.4669 73.9464C37.9599 69.7679 37.9599 62.3061 37.9599 52.7551V35.2449C37.9599 20.1225 37.9599 17.3367 37.7627 14.1531C37.5655 10.7704 36.7765 9.17857 33.5223 8.48213C32.7334 8.28317 31.057 8.18368 29.6764 8.18368C28.6903 8.18368 28 7.9847 28 7.38776C28 6.59184 28.7889 6.39286 30.2681 6.39286C32.832 6.39286 35.6918 6.49235 38.2558 6.49235C40.8197 6.59184 43.0878 6.69132 44.4684 6.69132C48.2156 6.69132 68.234 6.69132 70.5021 6.59184C72.3757 6.49235 73.5591 6.49235 74.5452 6.19387C75.1369 5.9949 75.63 5.59694 76.123 5.59694C76.5175 5.59694 76.8133 5.9949 76.8133 6.49235C76.8133 7.18877 76.3203 8.38266 76.0244 10.9694C75.9258 11.9643 75.7286 17.8342 75.5314 19.0281C75.4327 19.824 75.2355 20.4209 74.5452 20.4209C73.8549 20.4209 73.6577 19.9235 73.5591 18.8291C73.5591 18.0332 73.5591 16.4413 72.9674 15.0485C72.2771 13.6556 70.2063 12.1633 66.459 12.0638L51.2726 11.7653C50.681 11.7653 50.3851 12.0638 50.3851 13.1582V38.0306C50.3851 38.6276 50.4837 38.926 51.0754 38.926L63.6978 38.8265C65.3742 38.8265 66.7548 38.8265 68.1354 38.727C70.009 38.6276 71.3896 38.2296 72.3757 36.9362C72.8688 36.3393 73.066 35.9413 73.6577 35.9413C74.0522 35.9413 74.2494 36.2398 74.2494 36.8367C74.2494 37.4337 73.7563 39.9209 73.4605 43.0051C73.2633 44.9949 73.066 49.5714 73.066 50.2679C73.066 51.1633 73.066 52.1582 72.0799 52.1582C71.4882 52.1582 71.291 51.4617 71.291 50.7653C71.291 50.0689 71.0938 48.875 70.6993 47.6811C70.2063 46.2883 68.7271 44.4974 65.6701 44.0995C63.2048 43.801 52.7518 43.801 51.0754 43.801C50.5823 43.801 50.3851 44 50.3851 44.6964ZM120.407 83C92.1052 83 80.6661 61.6097 80.6661 44C80.6661 26.9872 91.8093 5 121.393 5C145.948 5 161.233 19.426 161.233 42.2092C161.233 64.9923 145.455 83 120.407 83ZM124.549 78.0255C131.452 78.0255 147.427 74.6429 147.427 45.8903C147.427 23.6046 134.706 9.77551 118.533 9.77551C107.193 9.77551 94.2747 16.1429 94.2747 40.9158C94.2747 61.6097 105.615 78.0255 124.549 78.0255ZM210.22 83C196.71 83 185.369 80.0153 176.395 72.1556C166.731 63.5995 164.167 52.4566 164.167 42.8061C164.167 36.0408 166.238 24.301 175.705 15.5459C182.805 8.97958 192.173 5 206.867 5C212.981 5 216.629 5.39796 221.166 5.9949C224.913 6.49235 228.068 7.38776 231.027 7.68623C232.112 7.78572 232.506 8.28317 232.506 8.8801C232.506 9.67602 232.21 10.8699 232.013 14.352C231.816 17.6352 231.914 23.1071 231.717 25.0969C231.619 26.5893 231.421 27.3852 230.534 27.3852C229.745 27.3852 229.548 26.5893 229.548 25.1964C229.449 22.1122 228.167 18.6301 225.702 16.0434C222.448 12.5612 214.756 9.87499 205.683 9.87499C197.104 9.87499 191.483 12.0638 187.144 16.0434C179.946 22.7092 178.072 32.1607 178.072 41.8112C178.072 65.4898 195.921 77.2296 209.135 77.2296C217.911 77.2296 223.236 76.2347 227.181 71.6582C228.857 69.7679 230.139 66.8827 230.534 65.0918C230.83 63.5 231.027 63.102 231.816 63.102C232.506 63.102 232.703 63.7985 232.703 64.5944C232.703 65.7883 231.52 74.4439 230.534 77.8265C230.041 79.5179 229.646 80.0153 227.97 80.7117C224.025 82.3036 216.531 83 210.22 83ZM241.657 49.7704V35.2449C241.657 20.1225 241.657 17.3367 241.46 14.1531C241.263 10.7704 240.474 9.17857 237.22 8.48213C236.431 8.28317 234.754 8.18368 233.374 8.18368C232.289 8.18368 231.697 7.9847 231.697 7.28827C231.697 6.59184 232.388 6.39286 233.867 6.39286C239.093 6.39286 245.306 6.69132 248.264 6.69132C250.631 6.69132 256.844 6.39286 260.394 6.39286C261.873 6.39286 262.563 6.59184 262.563 7.28827C262.563 7.9847 261.972 8.18368 260.985 8.18368C259.901 8.18368 259.309 8.28317 258.126 8.48213C255.463 8.97958 254.674 10.6709 254.477 14.1531C254.28 17.3367 254.28 20.1225 254.28 35.2449V49.1735C254.28 63.5995 257.14 69.6684 261.972 73.648C266.409 77.3291 270.945 77.727 274.298 77.727C278.637 77.727 283.962 76.3342 287.907 72.3546C293.33 66.8827 293.626 57.9286 293.626 47.6811V35.2449C293.626 20.1225 293.626 17.3367 293.429 14.1531C293.232 10.7704 292.443 9.17857 289.189 8.48213C288.4 8.28317 286.723 8.18368 285.639 8.18368C284.554 8.18368 283.962 7.9847 283.962 7.28827C283.962 6.59184 284.652 6.39286 286.033 6.39286C291.062 6.39286 297.275 6.69132 297.373 6.69132C298.557 6.69132 304.769 6.39286 308.615 6.39286C309.996 6.39286 310.686 6.59184 310.686 7.28827C310.686 7.9847 310.095 8.18368 308.911 8.18368C307.826 8.18368 307.235 8.28317 306.051 8.48213C303.389 8.97958 302.6 10.6709 302.403 14.1531C302.206 17.3367 302.206 20.1225 302.206 35.2449V45.8903C302.206 56.9337 301.121 68.6735 292.837 75.8367C285.836 81.9056 278.736 83 272.326 83C267.099 83 257.633 82.7015 250.434 76.1352C245.405 71.5587 241.657 64.1964 241.657 49.7704ZM330.957 83C325.237 83 320.8 82.3036 316.56 80.4133C314.982 79.7168 314.686 79.2194 314.686 77.0306C314.686 71.5587 315.08 65.5893 315.179 63.9974C315.278 62.5051 315.573 61.4107 316.362 61.4107C317.25 61.4107 317.348 62.3061 317.348 63.102C317.348 64.3954 317.743 66.4847 318.236 68.176C320.405 75.5383 326.224 78.2245 332.338 78.2245C341.213 78.2245 345.552 72.1556 345.552 66.8827C345.552 62.0077 344.073 57.4311 335.888 50.9643L331.351 47.3827C320.504 38.8265 316.757 31.8622 316.757 23.8036C316.757 12.8597 325.829 5 339.536 5C345.946 5 350.088 5.9949 352.652 6.69132C353.539 6.89031 354.032 7.18877 354.032 7.88521C354.032 9.17857 353.638 12.0638 353.638 19.824C353.638 22.0128 353.342 22.8087 352.553 22.8087C351.863 22.8087 351.567 22.2117 351.567 21.0179C351.567 20.1225 351.074 17.0383 349.003 14.4515C347.524 12.5612 344.664 9.57653 338.254 9.57653C330.957 9.57653 326.519 13.8546 326.519 19.824C326.519 24.4005 328.788 27.8827 336.972 34.1505L339.734 36.2398C351.666 45.2934 355.906 52.1582 355.906 61.6097C355.906 67.3801 353.737 74.2449 346.636 78.9209C341.706 82.1046 336.184 83 330.957 83ZM402.14 83C396.42 83 391.983 82.3036 387.742 80.4133C386.164 79.7168 385.869 79.2194 385.869 77.0306C385.869 71.5587 386.263 65.5893 386.362 63.9974C386.46 62.5051 386.756 61.4107 387.545 61.4107C388.432 61.4107 388.531 62.3061 388.531 63.102C388.531 64.3954 388.926 66.4847 389.419 68.176C391.588 75.5383 397.406 78.2245 403.52 78.2245C412.395 78.2245 416.734 72.1556 416.734 66.8827C416.734 62.0077 415.255 57.4311 407.07 50.9643L402.534 47.3827C391.687 38.8265 387.939 31.8622 387.939 23.8036C387.939 12.8597 397.012 5 410.719 5C417.129 5 421.27 5.9949 423.834 6.69132C424.722 6.89031 425.215 7.18877 425.215 7.88521C425.215 9.17857 424.821 12.0638 424.821 19.824C424.821 22.0128 424.525 22.8087 423.736 22.8087C423.046 22.8087 422.75 22.2117 422.75 21.0179C422.75 20.1225 422.257 17.0383 420.186 14.4515C418.707 12.5612 415.847 9.57653 409.437 9.57653C402.14 9.57653 397.702 13.8546 397.702 19.824C397.702 24.4005 399.97 27.8827 408.155 34.1505L410.916 36.2398C422.848 45.2934 427.089 52.1582 427.089 61.6097C427.089 67.3801 424.919 74.2449 417.819 78.9209C412.888 82.1046 407.366 83 402.14 83ZM471.665 83C443.363 83 431.924 61.6097 431.924 44C431.924 26.9872 443.067 5 472.651 5C497.205 5 512.49 19.426 512.49 42.2092C512.49 64.9923 496.712 83 471.665 83ZM475.806 78.0255C482.709 78.0255 498.684 74.6429 498.684 45.8903C498.684 23.6046 485.963 9.77551 469.791 9.77551C458.45 9.77551 445.532 16.1429 445.532 40.9158C445.532 61.6097 456.873 78.0255 475.806 78.0255ZM521.933 49.7704V35.2449C521.933 20.1225 521.933 17.3367 521.736 14.1531C521.539 10.7704 520.75 9.17857 517.496 8.48213C516.707 8.28317 515.03 8.18368 513.65 8.18368C512.565 8.18368 511.973 7.9847 511.973 7.28827C511.973 6.59184 512.664 6.39286 514.143 6.39286C519.369 6.39286 525.582 6.69132 528.54 6.69132C530.907 6.69132 537.12 6.39286 540.67 6.39286C542.149 6.39286 542.839 6.59184 542.839 7.28827C542.839 7.9847 542.248 8.18368 541.261 8.18368C540.177 8.18368 539.585 8.28317 538.402 8.48213C535.739 8.97958 534.95 10.6709 534.753 14.1531C534.556 17.3367 534.556 20.1225 534.556 35.2449V49.1735C534.556 63.5995 537.416 69.6684 542.248 73.648C546.685 77.3291 551.221 77.727 554.574 77.727C558.913 77.727 564.238 76.3342 568.183 72.3546C573.606 66.8827 573.902 57.9286 573.902 47.6811V35.2449C573.902 20.1225 573.902 17.3367 573.705 14.1531C573.508 10.7704 572.719 9.17857 569.465 8.48213C568.676 8.28317 566.999 8.18368 565.915 8.18368C564.83 8.18368 564.238 7.9847 564.238 7.28827C564.238 6.59184 564.928 6.39286 566.309 6.39286C571.338 6.39286 577.551 6.69132 577.649 6.69132C578.833 6.69132 585.045 6.39286 588.891 6.39286C590.272 6.39286 590.962 6.59184 590.962 7.28827C590.962 7.9847 590.371 8.18368 589.187 8.18368C588.102 8.18368 587.511 8.28317 586.327 8.48213C583.665 8.97958 582.876 10.6709 582.679 14.1531C582.482 17.3367 582.482 20.1225 582.482 35.2449V45.8903C582.482 56.9337 581.397 68.6735 573.113 75.8367C566.112 81.9056 559.012 83 552.602 83C547.375 83 537.909 82.7015 530.71 76.1352C525.681 71.5587 521.933 64.1964 521.933 49.7704ZM614.586 35.2449V52.7551C614.586 65.4898 614.586 72.3546 616.657 74.1454C618.333 75.6378 620.897 76.3342 628.589 76.3342C633.815 76.3342 637.661 76.2347 640.127 73.5485C641.31 72.2551 642.493 69.4694 642.69 67.5791C642.789 66.6837 642.986 66.0867 643.775 66.0867C644.465 66.0867 644.564 66.5842 644.564 67.7781C644.564 68.8725 643.874 76.3342 643.085 79.2194C642.493 81.4082 642 81.9056 636.872 81.9056C629.772 81.9056 624.644 81.7066 620.207 81.6072C615.769 81.4082 612.219 81.3087 608.176 81.3087C607.091 81.3087 604.922 81.3087 602.555 81.4082C600.287 81.4082 597.723 81.6072 595.751 81.6072C594.469 81.6072 593.779 81.3087 593.779 80.6123C593.779 80.1148 594.173 79.8163 595.356 79.8163C596.669 79.8163 599.804 76.5026 600.447 75.6378C601.926 73.648 601.531 73.051 601.926 70.1658C602.419 65.9872 602.259 61.9082 602.259 52.7551V35.2449C602.259 20.1225 602.259 17.3367 602.062 14.1531C601.865 10.7704 601.076 9.17857 597.822 8.48213C597.033 8.28317 595.849 8.18368 594.567 8.18368C593.483 8.18368 592.891 7.9847 592.891 7.28827C592.891 6.59184 593.581 6.39286 595.061 6.39286C599.695 6.39286 605.908 6.69132 608.57 6.69132C610.937 6.69132 618.136 6.39286 621.982 6.39286C623.362 6.39286 624.053 6.59184 624.053 7.28827C624.053 7.9847 623.461 8.18368 622.278 8.18368C621.193 8.18368 619.615 8.28317 618.432 8.48213C615.769 8.97958 614.98 10.6709 614.783 14.1531C614.586 17.3367 614.586 20.1225 614.586 35.2449ZM663.051 83C657.331 83 652.894 82.3036 648.654 80.4133C647.076 79.7168 646.78 79.2194 646.78 77.0306C646.78 71.5587 647.174 65.5893 647.273 63.9974C647.372 62.5051 647.667 61.4107 648.456 61.4107C649.344 61.4107 649.442 62.3061 649.442 63.102C649.442 64.3954 649.837 66.4847 650.33 68.176C652.499 75.5383 658.318 78.2245 664.432 78.2245C673.307 78.2245 677.646 72.1556 677.646 66.8827C677.646 62.0077 676.167 57.4311 667.982 50.9643L663.445 47.3827C652.598 38.8265 648.851 31.8622 648.851 23.8036C648.851 12.8597 657.923 5 671.63 5C678.04 5 682.182 5.9949 684.746 6.69132C685.633 6.89031 686.126 7.18877 686.126 7.88521C686.126 9.17857 685.732 12.0638 685.732 19.824C685.732 22.0128 685.436 22.8087 684.647 22.8087C683.957 22.8087 683.661 22.2117 683.661 21.0179C683.661 20.1225 683.168 17.0383 681.097 14.4515C679.618 12.5612 676.758 9.57653 670.348 9.57653C663.051 9.57653 658.613 13.8546 658.613 19.824C658.613 24.4005 660.882 27.8827 669.066 34.1505L671.828 36.2398C683.76 45.2934 688 52.1582 688 61.6097C688 67.3801 685.831 74.2449 678.73 78.9209C673.8 82.1046 668.277 83 663.051 83Z" fill="#D4AF37"/>
<path d="M0 43.1043C135 44.9376 467 47.5043 715 43.1043C491.167 42.271 34.8 41.1043 0 43.1043Z" fill="#D4AF37"/>
<path d="M700.64 0V0.669064H699.251V5H698.396V0.669064H697V0H700.64ZM707 0V5H706.144V1.57554L704.553 5H703.96L702.362 1.57554V5H701.506V0H702.429L704.261 3.92086L706.084 0H707Z" fill="#D4AF37"/>
</svg>
